# Blender v2.82 (sub 7) OBJ File: 'hazyeightwipmodel.blend'
# www.blender.org
mtllib icetrack.mtl
o model_Plane.002
v -6.000000 2.000000 2.000000
v 6.000000 2.000000 2.000000
v -2.000000 2.000000 4.000000
v -6.000000 2.000000 4.000000
v -2.000000 2.000000 8.000000
v -6.000000 2.000000 8.000000
v -2.000000 2.000000 12.000000
v 2.000000 2.000000 12.000000
v -6.000000 2.000000 12.000000
v -2.000000 2.000000 2.000000
v -2.000000 2.000000 0.000000
v 2.000000 2.000000 2.000000
v 2.000000 2.000000 0.000000
v -6.000000 2.000000 0.000000
v 6.000000 2.000000 0.000000
v -2.000000 2.000000 -4.000000
v 2.000000 2.000000 -4.000000
v -6.000000 2.000000 -4.000000
v 6.000000 2.000000 -4.000000
v 5.103861 -2.892897 15.999983
v 5.103865 -2.892897 11.999990
v 6.240170 -4.443102 15.999983
v 6.240174 -4.443102 11.999990
v 6.240167 -4.443102 19.999975
v 7.935480 -5.260590 15.999983
v 7.935484 -5.260590 11.999990
v 7.935476 -5.260590 19.999975
v 9.997098 -5.180446 15.999983
v 9.997102 -5.180446 11.999990
v 9.997094 -5.180446 19.999975
v 23.999998 0.000000 15.999983
v 24.000002 0.000000 11.999990
v 23.999994 0.000000 19.999975
v -0.000013 0.000000 40.000000
v -2.000003 0.000000 35.999989
v 1.999988 0.000000 36.000000
v 5.999988 0.000000 35.999996
v -2.000003 1.000000 31.999989
v 1.999988 1.000000 32.000000
v -5.999985 1.000000 32.000008
v 5.999988 1.000000 31.999996
v -2.000003 1.750000 27.999989
v 1.999988 1.750000 28.000000
v -5.999985 1.750000 28.000008
v 5.999988 1.750000 27.999996
v -2.000003 2.000000 23.999989
v 1.999988 2.000000 24.000000
v -5.999985 2.000000 24.000008
v 5.999988 2.000000 23.999996
v -2.000003 2.000000 19.999989
v 1.999988 2.000000 20.000000
v -5.999985 2.000000 20.000008
v 5.999988 2.000000 19.999996
v -2.000003 2.000000 15.999989
v 1.999988 2.000000 16.000000
v -5.999985 2.000000 16.000008
v 5.999988 2.000000 15.999996
v -5.999985 0.000000 40.000008
v -5.999985 0.000000 36.000008
v 5.999988 0.000000 39.999996
v -19.562269 -2.268931 13.999983
v -19.562273 -2.268931 17.999983
v -19.562265 -2.268931 9.999992
v -19.562271 -2.268931 21.999987
v -14.384492 -3.763488 13.999983
v -14.384496 -3.763488 17.999983
v -14.384488 -3.763488 9.999992
v -14.384494 -3.763488 21.999987
v -2.218056 -4.895508 13.999983
v -2.218060 -4.895508 17.999983
v -2.218052 -4.895508 9.999992
v -2.218058 -4.895508 21.999987
v 0.707891 -4.617789 13.999983
v 0.707887 -4.617789 17.999983
v 0.707895 -4.617789 9.999992
v 0.707889 -4.617789 21.999987
v 5.103857 -2.892897 19.999975
v 2.000000 2.000000 8.617271
v 6.000000 2.000000 10.777721
v 6.000000 2.000000 12.000000
v 2.000000 2.000000 4.000000
v 6.000000 2.000000 4.000000
v -2.000000 2.000000 -8.000000
v 2.000000 2.000000 -8.000000
v -6.000000 2.000000 -8.000000
v 6.000000 2.000000 -8.000000
v -12.000000 2.000000 -8.000000
v -4.947442 2.000000 -19.000000
v -1.483340 2.000000 -21.000000
v -8.411543 2.000000 -17.000000
v 1.980761 4.000001 -23.000000
v -13.607696 2.000000 -14.000000
v -13.000002 2.000000 -27.052559
v -11.000002 2.000000 -30.516659
v -15.000001 2.000000 -23.588455
v -9.000002 4.000001 -33.980762
v -18.000002 2.000000 -18.392303
v -24.000002 1.999999 -30.000000
v -24.000002 1.999999 -33.999996
v -24.000000 1.999999 -25.999998
v -24.000002 4.000000 -38.000000
v -24.000002 2.000000 -19.999996
v -35.000000 1.999999 -27.052559
v -37.000000 1.999999 -30.516655
v -33.000000 1.999999 -23.588455
v -39.000000 4.000000 -33.980762
v -30.000000 1.999999 -18.392300
v -43.052559 1.999999 -19.000000
v -46.516655 1.999998 -20.999994
v -39.588455 1.999999 -16.999998
v -49.980766 4.000000 -23.000000
v -34.392303 1.999999 -13.999995
v -46.000000 1.999999 -8.000000
v -49.999992 1.999998 -7.999996
v -42.000000 1.999999 -7.999999
v -54.000000 3.999999 -7.999998
v -36.000000 1.999999 -7.999996
v -43.052559 1.999999 3.000000
v -46.516655 1.999998 5.000000
v -39.588455 1.999999 1.000002
v -49.980759 4.000000 7.000002
v -34.392303 1.999999 -1.999996
v -35.000000 1.999999 11.052559
v -36.999992 1.999999 14.516659
v -33.000000 1.999999 7.588459
v -39.000000 4.000000 17.980762
v -29.999998 1.999999 2.392308
v -24.000000 1.999999 14.000000
v -23.999996 1.999999 17.999996
v -24.000000 1.999999 10.000002
v -24.000000 1.999999 22.000000
v -23.999998 1.999999 4.000002
v 36.000008 0.000000 19.215376
v 38.000008 2.000000 15.751284
v 34.000008 0.000000 22.679470
v 44.784622 0.000000 27.999992
v 48.248718 2.000000 26.000000
v 41.320526 0.000000 29.999985
v 48.000015 0.000000 40.000000
v 52.000008 2.000000 40.000008
v 44.000023 0.000000 40.000000
v 44.784622 0.000000 52.000008
v 48.248711 2.000000 54.000011
v 41.320526 0.000000 50.000011
v 36.000008 0.000000 60.784622
v 37.999992 2.000000 64.248726
v 34.000011 0.000000 57.320530
v 24.000000 0.000000 64.000015
v 23.999987 2.000000 68.000008
v 24.000000 0.000000 60.000023
v 11.999992 0.000000 60.784622
v 9.999985 2.000000 64.248711
v 13.999989 0.000000 57.320530
v 3.215378 0.000000 52.000008
v -0.248724 2.000000 53.999992
v 6.679472 0.000000 50.000015
v -4.000006 0.000000 39.999989
v 3.999975 0.000000 40.000004
v 5.103861 -2.892897 15.999983
v 5.103865 -2.892897 11.999990
v -24.000000 1.999999 14.000000
v -23.999996 1.999999 17.999996
v -24.000000 1.999999 10.000002
v -24.000000 1.999999 22.000000
v 5.103857 -2.892897 19.999975
vt -0.424454 1.304890
vt -0.436325 1.316495
vt -0.630285 1.442170
vt -0.615707 1.427919
vt -0.465104 1.344628
vt -0.665626 1.476719
vt -0.601129 1.413668
vt -0.571974 1.385167
vt -0.388843 1.270077
vt -0.412584 1.293286
vt -0.784955 1.531037
vt -0.974197 1.651864
vt -0.934329 1.612890
vt -0.750521 1.497375
vt -0.861129 1.605504
vt -0.819389 1.564699
vt -0.802172 1.547868
vt -1.062394 1.738083
vt -1.014066 1.690839
vt -0.994132 1.671351
vt -0.365101 1.246868
vt -0.298587 1.181844
vt -0.060996 1.043032
vt -0.105339 1.086381
vt -0.232224 1.116970
vt -0.016754 0.999783
vt -0.165862 1.052095
vt 0.027487 0.956533
vt -0.099500 0.987220
vt 0.071729 0.913283
vt -0.033137 0.922345
vt 0.115970 0.870033
vt 0.033225 0.857470
vt 0.160212 0.826783
vt 0.099587 0.792596
vt 0.204453 0.783533
vt 0.165950 0.727721
vt 0.248695 0.740283
vt 0.232464 0.662697
vt 0.293038 0.696934
vt -0.776061 1.584679
vt -0.746906 1.556177
vt -0.531290 1.409331
vt -0.555031 1.432540
vt -1.213408 1.885711
vt -1.173539 1.846737
vt -0.957125 1.699347
vt -0.991559 1.733009
vt -1.093802 1.768788
vt -0.888257 1.632023
vt -0.922691 1.665685
vt -1.133671 1.807762
vt -0.717751 1.527675
vt -0.507548 1.386122
vt -0.483807 1.362913
vt -0.688595 1.499174
vt -0.578818 1.455794
vt -0.805273 1.613236
vt -1.026060 1.766737
vt -1.253354 1.924762
vt -0.542819 1.356665
vt -0.716087 1.463713
vt -0.894461 1.573915
vt -1.864807 2.649025
vt -2.289581 3.000111
vt -2.272961 2.983862
vt -1.850798 2.635330
vt -1.441597 2.299233
vt -1.430189 2.288081
vt -2.256685 2.967951
vt -1.837079 2.621919
vt -1.419019 2.277160
vt -2.238844 2.950510
vt -1.822041 2.607218
vt -1.406773 2.265189
vt -2.109735 2.824294
vt -1.713216 2.500831
vt -1.318156 2.178559
vt 0.942907 0.237016
vt 0.885814 0.236822
vt 0.884589 0.199273
vt 0.941682 0.199468
vt 1.000000 0.237211
vt 0.998775 0.199662
vt 0.828721 0.236627
vt 0.827496 0.199078
vt 0.827453 0.156706
vt 0.884546 0.156900
vt 0.941639 0.157095
vt 0.998732 0.157290
vt 0.828299 0.058123
vt 0.885392 0.058318
vt 0.942485 0.058513
vt 0.999578 0.058708
vt 0.885814 0.034837
vt 0.942907 0.035031
vt 1.000000 0.035226
vt 0.828721 0.034642
vt 0.915515 0.000195
vt 0.858422 0.000000
vt 0.972608 0.000390
vt 0.111776 0.388083
vt 0.131967 0.376691
vt 0.152159 0.410907
vt -0.653988 1.529279
vt -0.897586 1.703480
vt -0.864989 1.671614
vt -0.627445 1.503331
vt -1.335012 2.004590
vt -1.096588 1.835684
vt -1.135087 1.873319
vt -1.379586 2.048164
vt 0.212732 0.331124
vt 0.232923 0.319732
vt 0.273306 0.342557
vt 0.172350 0.353908
vt 0.232923 0.365341
vt 0.192541 0.388124
vt -1.061095 1.800986
vt -0.834937 1.642235
vt -1.293917 1.964416
vt -0.602973 1.479407
vt -0.782764 1.464723
vt -0.619614 1.369403
vt -0.461135 1.276813
vt -0.379639 1.197143
vt -0.671322 1.355779
vt -0.523363 1.275309
vt -0.298142 1.117474
vt -0.559881 1.246836
vt -0.427111 1.181216
vt -0.330860 1.087122
vt -0.216646 1.037804
vt -0.448439 1.137893
vt -0.336998 1.028950
vt -0.234608 0.993028
vt -0.135150 0.958135
vt -0.225556 0.920007
vt -0.138357 0.898934
vt -0.053653 0.878465
vt -0.114115 0.811063
vt -0.042105 0.804840
vt 0.027843 0.798796
vt -0.002674 0.702120
vt 0.054146 0.710747
vt 0.109339 0.719126
vt 0.109023 0.592927
vt 0.150618 0.616437
vt 0.191023 0.639274
vt -2.001911 2.718885
vt -1.622331 2.411983
vt -1.244149 2.106210
vt -1.894482 2.613863
vt -1.531779 2.323460
vt -1.170413 2.034127
vt -1.787053 2.508841
vt -1.441228 2.234938
vt -1.096677 1.962044
vt -1.679624 2.403819
vt -1.350677 2.146416
vt -1.022941 1.889961
vt -1.572195 2.298797
vt -1.260125 2.057894
vt -0.949204 1.817878
vt -1.464767 2.193776
vt -1.169574 1.969372
vt -0.875468 1.745794
vt -1.357338 2.088754
vt -1.079022 1.880850
vt -0.801732 1.673711
vt -1.249909 1.983733
vt -0.988471 1.792328
vt -0.727996 1.601628
vt -1.142084 1.878324
vn 0.0000 1.0000 0.0000
vn 0.0000 0.9995 0.0312
vn 0.0000 0.9923 0.1235
vn -0.0659 0.9971 0.0379
vn -0.1029 0.9929 0.0592
vn 0.8065 0.5912 0.0000
vn 0.6394 0.7688 0.0000
vn 0.2038 0.9790 0.0000
vn -0.1953 0.9807 0.0000
vn -0.1627 0.9867 0.0000
vn -0.2159 0.9742 0.0660
vn -0.2531 0.9620 0.1026
vn 0.6933 0.7207 0.0000
vn 0.4999 0.8661 0.0000
vn 0.1858 0.9826 0.0000
vn -0.0009 1.0000 0.0000
vn -0.2321 0.9727 0.0000
vn -0.2121 0.9772 0.0000
vn -0.3652 0.9309 0.0000
vn 0.0661 0.9970 -0.0397
vn 0.0000 0.9925 0.1222
vn 0.0654 0.9971 -0.0393
vn 0.0000 0.9769 0.2135
vn -0.2776 0.9325 0.2308
vn -0.1625 0.9775 0.1343
vn -0.2236 0.8944 0.3873
vn -0.1327 0.9641 0.2298
vn 0.0000 0.8944 0.4472
vn 0.0000 0.9641 0.2653
vn 0.1327 0.9641 0.2298
vn 0.2236 0.8944 0.3873
vn 0.3873 0.8944 0.2236
vn 0.2298 0.9641 0.1327
vn 0.4472 0.8944 0.0000
vn 0.2653 0.9641 0.0000
vn 0.3873 0.8944 -0.2236
vn 0.2298 0.9641 -0.1327
vn 0.2308 0.9325 -0.2776
vn 0.1343 0.9775 -0.1625
vn 0.1291 0.9659 -0.2242
vn 0.0759 0.9883 -0.1319
vn -0.1357 0.9774 0.1620
vn -0.2333 0.9321 0.2770
vn -0.2298 0.9641 0.1327
vn -0.3873 0.8944 0.2236
vn -0.2653 0.9641 0.0000
vn -0.4472 0.8944 0.0000
vn -0.2298 0.9641 -0.1327
vn -0.3873 0.8944 -0.2236
vn -0.1327 0.9641 -0.2298
vn -0.2236 0.8944 -0.3873
vn 0.0000 0.9641 -0.2653
vn 0.0000 0.8944 -0.4472
vn 0.1327 0.9641 -0.2298
vn 0.2236 0.8944 -0.3873
vn 0.1620 0.9774 -0.1357
vn 0.2770 0.9321 -0.2333
usemtl snow
s 1
f 1/1/1 4/2/1 3/3/1 10/4/1
f 3/3/1 4/2/1 6/5/1 5/6/1
f 11/7/1 16/8/1 18/9/1 14/10/1
f 13/11/1 15/12/1 19/13/1 17/14/1
f 17/14/1 16/8/1 11/7/1 13/11/1
f 3/3/1 5/6/1 78/15/1 81/16/1
f 10/4/1 3/3/1 81/16/1 12/17/1
f 81/16/1 78/15/1 79/18/1 82/19/1
f 12/17/1 81/16/1 82/19/1 2/20/1
f 85/21/1 90/22/1 92/23/1 87/24/1
f 90/22/1 95/25/1 97/26/1 92/23/1
f 95/25/1 100/27/1 102/28/1 97/26/1
f 100/27/1 105/29/1 107/30/1 102/28/1
f 105/29/1 110/31/1 112/32/1 107/30/1
f 110/31/1 115/33/1 117/34/1 112/32/1
f 115/33/1 120/35/1 122/36/1 117/34/1
f 120/35/1 125/37/1 127/38/1 122/36/1
f 125/37/1 130/39/1 132/40/1 127/38/1
usemtl ice
f 46/41/2 50/42/1 52/43/1 48/44/2
f 49/45/2 53/46/1 51/47/1 47/48/2
f 80/49/1 8/50/1 55/51/1 57/52/1
f 52/43/1 50/42/1 54/53/1 56/54/1
f 50/42/1 46/41/2 47/48/2 51/47/1
f 5/6/1 6/5/1 9/55/1 7/56/1
f 54/53/1 7/56/1 9/55/1 56/54/1
f 50/42/1 51/47/1 55/51/1 54/53/1
f 55/51/1 8/50/1 7/56/1 54/53/1
f 51/47/1 53/46/1 57/52/1 55/51/1
f 44/57/3 42/58/3 46/41/2 48/44/2
f 43/59/3 47/48/2 46/41/2 42/58/3
f 45/60/3 49/45/2 47/48/2 43/59/3
f 83/61/1 16/8/1 17/14/1 84/62/4
f 85/21/1 18/9/1 16/8/1 83/61/1
f 19/13/1 86/63/5 84/62/4 17/14/1
f 20/64/6 77/65/6 24/66/7 22/67/7
f 160/68/6 20/64/6 22/67/7 23/69/7
f 22/67/7 24/66/7 27/70/8 25/71/8
f 23/69/7 22/67/7 25/71/8 26/72/8
f 25/71/8 27/70/8 30/73/9 28/74/9
f 26/72/8 25/71/8 28/74/9 29/75/9
f 28/74/9 30/73/9 33/76/10 31/77/11
f 29/75/9 28/74/9 31/77/11 32/78/12
f 161/79/13 162/80/13 62/81/14 61/82/14
f 163/83/13 161/79/13 61/82/14 63/84/14
f 162/80/13 164/85/13 64/86/14 62/81/14
f 62/81/14 64/86/14 68/87/15 66/88/15
f 61/82/14 62/81/14 66/88/15 65/89/15
f 63/84/14 61/82/14 65/89/15 67/90/15
f 66/88/15 68/87/15 72/91/16 70/92/16
f 65/89/15 66/88/15 70/92/16 69/93/16
f 67/90/15 65/89/15 69/93/16 71/94/16
f 69/93/16 70/92/16 74/95/17 73/96/17
f 71/94/16 69/93/16 73/96/17 75/97/18
f 70/92/16 72/91/16 76/98/18 74/95/17
f 73/96/17 74/95/17 159/99/19
f 74/95/17 76/98/18 165/100/19 159/99/19
f 75/97/18 73/96/17 159/99/19 21/101/19
f 58/102/1 157/103/20 59/104/21
f 157/105/20 34/106/22 35/107/21 59/108/21
f 37/109/21 36/110/21 34/111/22 158/112/1
f 158/113/1 60/114/1 37/115/21
f 34/116/22 36/117/21 35/118/21
f 36/110/21 39/119/23 38/120/23 35/107/21
f 36/110/21 37/109/21 41/121/23 39/119/23
f 35/107/21 38/120/23 40/122/23 59/108/21
f 44/57/3 40/122/23 38/120/23 42/58/3
f 38/120/23 39/119/23 43/59/3 42/58/3
f 39/119/23 41/121/23 45/60/3 43/59/3
f 5/6/1 7/56/1 8/50/1 78/15/1
f 78/15/1 8/50/1 80/49/1 79/18/1
f 84/62/4 86/63/5 91/123/24 89/124/25
f 83/61/1 84/62/4 89/124/25 88/125/1
f 85/21/1 83/61/1 88/125/1 90/22/1
f 90/22/1 88/125/1 93/126/1 95/25/1
f 89/124/25 91/123/24 96/127/26 94/128/27
f 88/125/1 89/124/25 94/128/27 93/126/1
f 95/25/1 93/126/1 98/129/1 100/27/1
f 94/128/27 96/127/26 101/130/28 99/131/29
f 93/126/1 94/128/27 99/131/29 98/129/1
f 98/129/1 99/131/29 104/132/30 103/133/1
f 100/27/1 98/129/1 103/133/1 105/29/1
f 99/131/29 101/130/28 106/134/31 104/132/30
f 104/132/30 106/134/31 111/135/32 109/136/33
f 103/133/1 104/132/30 109/136/33 108/137/1
f 105/29/1 103/133/1 108/137/1 110/31/1
f 109/136/33 111/135/32 116/138/34 114/139/35
f 108/137/1 109/136/33 114/139/35 113/140/1
f 110/31/1 108/137/1 113/140/1 115/33/1
f 114/139/35 116/138/34 121/141/36 119/142/37
f 113/140/1 114/139/35 119/142/37 118/143/1
f 115/33/1 113/140/1 118/143/1 120/35/1
f 119/142/37 121/141/36 126/144/38 124/145/39
f 118/143/1 119/142/37 124/145/39 123/146/1
f 120/35/1 118/143/1 123/146/1 125/37/1
f 124/145/39 126/144/38 131/147/40 129/148/41
f 123/146/1 124/145/39 129/148/41 128/149/1
f 125/37/1 123/146/1 128/149/1 130/39/1
f 31/77/11 33/76/10 135/150/1 133/151/42
f 32/78/12 31/77/11 133/151/42 134/152/43
f 133/151/42 135/150/1 138/153/1 136/154/44
f 134/152/43 133/151/42 136/154/44 137/155/45
f 136/154/44 138/153/1 141/156/1 139/157/46
f 137/155/45 136/154/44 139/157/46 140/158/47
f 139/157/46 141/156/1 144/159/1 142/160/48
f 140/158/47 139/157/46 142/160/48 143/161/49
f 142/160/48 144/159/1 147/162/1 145/163/50
f 143/161/49 142/160/48 145/163/50 146/164/51
f 145/163/50 147/162/1 150/165/1 148/166/52
f 146/164/51 145/163/50 148/166/52 149/167/53
f 148/166/52 150/165/1 153/168/1 151/169/54
f 149/167/53 148/166/52 151/169/54 152/170/55
f 151/169/54 153/168/1 156/171/1 154/172/56
f 152/170/55 151/169/54 154/172/56 155/173/57
f 154/172/56 156/171/1 158/174/1 34/106/22
f 155/173/57 154/172/56 34/106/22 157/105/20
usemtl checker
f 15/12/1 13/11/1 12/17/1 2/20/1
f 10/4/1 11/7/1 14/10/1 1/1/1
f 12/17/1 13/11/1 11/7/1 10/4/1
